# xmcd
# 
# Track frame offsets:
#     183
#     24190
#     43593
#     59958
#     75240
#     99193
#     118825
#     138725
#     152890
#     171735
#     187698
#     204688
#     221548
#     234838
#     250705
#     256085
#     276178
#     287083
#     295033
#     315998
# 
# Disc length: 4385
# 
# Revision: 3
# Processed by: cddbd v1.5.2PL0 Copyright (c) Steve Scherf et al.
# Submitted via: fre:ac v1.0.31
# 
DISCID=1a111f14
DTITLE=Serge Reggiani - Le Zouave Du Pont De l'Alma
DYEAR=1982
DGENRE=Folk
TTITLE0=No Copines
TTITLE1=La Barbe À Papa
TTITLE2=Soliloque Pour Trois Enfants
TTITLE3=Une Écharde Au Coeur
TTITLE4=La Vieillesse
TTITLE5=Le Petit Dernier De La Classe
TTITLE6=L'exilé
TTITLE7=Le Zouave Du Pont De l'Alma
TTITLE8=Les Objets Perdus
TTITLE9=On S'aime
TTITLE10=La Complainte Du Tabac
TTITLE11=Primevère
TTITLE12=La Monde Est Formidable
TTITLE13=Plus De Musique En 2903
TTITLE14=Les Bienfaits De La Lune
TTITLE15=Maudite Enfant
TTITLE16=L'ogre
TTITLE17=Linothanie
TTITLE18=Boulevard Du Crime
TTITLE19=Poubelle
EXTD=
EXTT0=
EXTT1=
EXTT2=
EXTT3=
EXTT4=
EXTT5=
EXTT6=
EXTT7=
EXTT8=
EXTT9=
EXTT10=
EXTT11=
EXTT12=
EXTT13=
EXTT14=
EXTT15=
EXTT16=
EXTT17=
EXTT18=
EXTT19=
PLAYORDER=
